#!OML:ASF I:\golf\golf\golf 2\Subject 1\2002-09-07\Subject1.ASF
:FULLY-SPECIFIED
:DEGREES
414
root -6.51014 18.1462 -3.30266 -166.704 2.38755 -175.066
lowerback -7.00712 10.021 12.5162
upperback -8.58297 15.011 3.26216
thorax -3.33488 7.78307 -2.49271
lowerneck -15.4069 -15.3284 -2.07659
upperneck 11.526 -20.9097 3.12149
head 6.51329 -10.0098 -0.858977
rclavicle 1.9799e-013 6.52014e-014
rhumerus 74.6766 29.4459 -65.9273
rradius 59.2125
rwrist -8.37574
rhand -44.6863 38.872
rfingers 7.12502
rthumb -17.4818 9.63807
lclavicle 1.9799e-013 6.52014e-014
lhumerus 59.8693 -5.04931 45.1097
lradius 50.3642
lwrist 12.0784
lhand 150.081 198.697
lfingers 7.12502
lthumb -183.239 -131.348
rfemur 11.7144 -2.20083 21.4612
rtibia 19.1308
rfoot 27.6001 -23.7798
rtoes 10.1563
lfemur -26.2812 -14.9793 -12.6574
ltibia 21.6764
lfoot 40.924 -41.6583
ltoes 51.8928
415
root -6.49882 18.1473 -3.27711 -166.743 2.49852 -175.077
lowerback -6.80831 9.93192 12.3643
upperback -8.50735 14.8839 3.28201
thorax -3.40563 7.70947 -2.44743
lowerneck -15.59 -15.1991 -2.01292
upperneck 11.5603 -20.6965 2.91523
head 6.51935 -9.91307 -0.916352
rclavicle 4.25399e-014 1.27222e-014
rhumerus 73.6158 29.4764 -66.1901
rradius 59.0267
rwrist -8.28578
rhand -44.6883 38.7234
rfingers 7.12502
rthumb -17.4837 9.48961
lclavicle 4.25399e-014 1.27222e-014
lhumerus 59.7678 -6.1397 45.8994
lradius 49.8105
lwrist 11.8432
lhand 149.76 199.128
lfingers 7.12502
lthumb -183.549 -130.922
rfemur 11.5972 -2.11377 21.4282
rtibia 19.3489
rfoot 27.4602 -23.6221
rtoes 9.29256
lfemur -26.2626 -14.9211 -12.6066
ltibia 21.5943
lfoot 40.9768 -41.4328
ltoes 51.85
416
root -6.48777 18.1476 -3.25474 -166.797 2.64128 -174.996
lowerback -6.58197 9.86039 12.3546
upperback -8.45696 14.7809 3.26277
thorax -3.47728 7.6393 -2.51336
lowerneck -15.7737 -15.0332 -1.8047
upperneck 11.6598 -20.4778 2.71145
head 6.53324 -9.80893 -0.993356
rclavicle 3.18055e-014 3.18055e-014
rhumerus 72.4635 29.5156 -66.5829
rradius 58.9004
rwrist -8.18665
rhand -44.6951 38.5806
rfingers 7.12502
rthumb -17.4902 9.34743
lclavicle 3.18055e-014 3.18055e-014
lhumerus 59.396 -7.25877 47.0919
lradius 49.6089
lwrist 11.0542
lhand 149.535 199.8
lfingers 7.12502
lthumb -183.766 -130.254
rfemur 11.5142 -2.08191 21.4257
rtibia 19.5681
rfoot 27.3433 -23.2403
rtoes 9.64862
lfemur -26.2057 -14.7582 -12.5083
ltibia 21.5188
lfoot 40.8906 -41.6102
ltoes 51.6255
417
root -6.47908 18.1486 -3.23177 -166.791 2.8136 -174.946
lowerback -6.42384 9.74628 12.2863
upperback -8.39775 14.6191 3.28993
thorax -3.53438 7.54798 -2.4967
lowerneck -15.9044 -14.8114 -1.63752
upperneck 11.6846 -20.1876 2.60008
head 6.52871 -9.66771 -1.0239
rclavicle 1.05753e-013 -3.18055e-015
rhumerus 71.3775 29.7101 -66.8671
rradius 58.8262
rwrist -8.10248
rhand -44.8973 38.2309
rfingers 7.12502
rthumb -17.6848 9.01513
lclavicle 1.05753e-013 -3.18055e-015
lhumerus 58.8872 -8.03363 48.4328
lradius 49.3389
lwrist 11.1244
lhand 150.138 199.005
lfingers 7.12502
lthumb -183.184 -131.039
rfemur 11.3502 -2.10096 21.3408
rtibia 19.78
rfoot 27.7318 -22.1606
rtoes 8.3085
lfemur -26.2042 -14.563 -12.4527
ltibia 21.4303
lfoot 40.9314 -41.6067
ltoes 51.6451
418
root -6.47144 18.1534 -3.20956 -166.705 2.98679 -175.031
lowerback -6.36815 9.67712 12.0882
upperback -8.32172 14.4952 3.27985
thorax -3.5275 7.48349 -2.42552
lowerneck -16.1104 -14.6861 -1.79687
upperneck 11.7372 -19.9938 2.70092
head 6.60283 -9.56295 -0.973436
rclavicle -9.46215e-014 -9.06458e-014
rhumerus 70.3154 29.7928 -67.087
rradius 58.6425
rwrist -8.11423
rhand -44.7733 38.5053
rfingers 7.12502
rthumb -17.5655 9.27878
lclavicle -9.46215e-014 -9.06458e-014
lhumerus 58.4497 -8.78837 49.6035
lradius 49.0673
lwrist 11.3484
lhand 150.806 198.291
lfingers 7.12502
lthumb -182.539 -131.745
rfemur 11.0962 -1.99797 21.1777
rtibia 19.9789
rfoot 28.1443 -21.25
rtoes 6.2869
lfemur -26.2954 -14.4848 -12.5
ltibia 21.3445
lfoot 40.8687 -41.4146
ltoes 51.7677
419
root -6.46276 18.1555 -3.18845 -166.725 3.17051 -175.121
lowerback -6.27917 9.66008 11.8761
upperback -8.19156 14.4254 3.26015
thorax -3.47198 7.44428 -2.34928
lowerneck -16.3513 -14.6566 -2.02771
upperneck 11.8137 -19.9138 2.8055
head 6.69918 -9.51318 -0.929194
rclavicle 1.53064e-014 1.59028e-015
rhumerus 69.2315 29.7567 -67.3253
rradius 58.4634
rwrist -8.30527
rhand -44.3181 39.0782
rfingers 7.12502
rthumb -17.1274 9.81308
lclavicle 1.53064e-014 1.59028e-015
lhumerus 58.0865 -9.64075 50.7302
lradius 48.8062
lwrist 11.3874
lhand 151.289 198.013
lfingers 7.12502
lthumb -182.073 -132.017
rfemur 10.9817 -1.87764 21.0188
rtibia 20.1726
rfoot 28.2178 -21.0451
rtoes 6.62831
lfemur -26.2512 -14.4921 -12.5657
ltibia 21.2495
lfoot 40.4588 -41.5263
ltoes 51.5768
